<svg width="287" height="26" viewBox="0 0 287 26" fill="none" xmlns="http://www.w3.org/2000/svg">
<path id="Swiggle" d="M285 2L267.373 14.5043C259.246 20.2691 248.472 20.6578 239.951 15.4936L231.975 10.6599C223.326 5.41808 212.371 5.9036 204.219 11.89L202.274 13.3186C193.591 19.6957 181.799 19.7927 173.012 13.5595L170.296 11.6328C162.071 5.79864 151.147 5.47666 142.593 10.8163L135.357 15.3332C126.924 20.5972 116.174 20.365 107.977 14.7417L103.88 11.9312C95.2093 5.98358 83.7263 6.1684 75.252 12.392L73.2776 13.8419C65.1756 19.7921 54.043 19.3799 46.4031 12.8469C38.929 6.45559 28.0852 5.90728 20.0046 11.512L2 24" stroke="url(#paint0_linear_131_632)" stroke-width="4"/>
<defs>
<linearGradient id="paint0_linear_131_632" x1="285" y1="13" x2="2" y2="13" gradientUnits="userSpaceOnUse">
<stop stop-color="#F7790A"/>
<stop offset="1" stop-color="#B8F000"/>
</linearGradient>
</defs>
</svg>
